<mxfile host="Electron" modified="2023-10-31T17:44:12.912Z" agent="Mozilla/5.0 (Windows NT 10.0; Win64; x64) AppleWebKit/537.36 (KHTML, like Gecko) draw.io/22.0.3 Chrome/114.0.5735.289 Electron/25.8.4 Safari/537.36" etag="92iwZBq-bWnhbCl2rhHi" version="22.0.3" type="device">
  <diagram name="Страница — 1" id="8g-pTgd9MVRanv841uPu">
    <mxGraphModel dx="2261" dy="844" grid="1" gridSize="10" guides="1" tooltips="1" connect="1" arrows="1" fold="1" page="1" pageScale="1" pageWidth="827" pageHeight="1169" math="0" shadow="0">
      <root>
        <mxCell id="0" />
        <mxCell id="1" parent="0" />
        <mxCell id="LJ5irhbfw4PvmowIeIFu-1" value="" style="rounded=0;whiteSpace=wrap;html=1;connectable=0;" parent="1" vertex="1">
          <mxGeometry x="161" y="120" width="120" height="200" as="geometry" />
        </mxCell>
        <mxCell id="LJ5irhbfw4PvmowIeIFu-2" value="" style="rounded=0;whiteSpace=wrap;html=1;connectable=0;" parent="1" vertex="1">
          <mxGeometry x="161" y="400" width="120" height="200" as="geometry" />
        </mxCell>
        <mxCell id="LJ5irhbfw4PvmowIeIFu-3" value="" style="rounded=0;whiteSpace=wrap;html=1;connectable=0;" parent="1" vertex="1">
          <mxGeometry x="401" y="200" width="120" height="320" as="geometry" />
        </mxCell>
        <mxCell id="LJ5irhbfw4PvmowIeIFu-4" value="" style="rounded=0;whiteSpace=wrap;html=1;connectable=0;" parent="1" vertex="1">
          <mxGeometry x="641" y="320" width="120" height="760" as="geometry" />
        </mxCell>
        <mxCell id="LJ5irhbfw4PvmowIeIFu-5" value="" style="endArrow=classic;html=1;rounded=0;" parent="1" edge="1">
          <mxGeometry width="50" height="50" relative="1" as="geometry">
            <mxPoint y="200" as="sourcePoint" />
            <mxPoint x="640" y="760" as="targetPoint" />
            <Array as="points">
              <mxPoint x="100" y="200" />
              <mxPoint x="100" y="760" />
            </Array>
          </mxGeometry>
        </mxCell>
        <mxCell id="LJ5irhbfw4PvmowIeIFu-6" value="" style="endArrow=classic;html=1;rounded=0;" parent="1" edge="1">
          <mxGeometry width="50" height="50" relative="1" as="geometry">
            <mxPoint y="240" as="sourcePoint" />
            <mxPoint x="640" y="800" as="targetPoint" />
            <Array as="points">
              <mxPoint x="80" y="240" />
              <mxPoint x="80" y="800" />
            </Array>
          </mxGeometry>
        </mxCell>
        <mxCell id="LJ5irhbfw4PvmowIeIFu-7" value="" style="endArrow=classic;html=1;rounded=0;entryX=0.008;entryY=0.4;entryDx=0;entryDy=0;entryPerimeter=0;" parent="1" edge="1">
          <mxGeometry width="50" height="50" relative="1" as="geometry">
            <mxPoint y="440" as="sourcePoint" />
            <mxPoint x="161" y="440" as="targetPoint" />
          </mxGeometry>
        </mxCell>
        <mxCell id="LJ5irhbfw4PvmowIeIFu-8" value="" style="endArrow=classic;html=1;rounded=0;entryX=0.008;entryY=0.4;entryDx=0;entryDy=0;entryPerimeter=0;" parent="1" edge="1">
          <mxGeometry width="50" height="50" relative="1" as="geometry">
            <mxPoint y="480" as="sourcePoint" />
            <mxPoint x="161" y="480" as="targetPoint" />
          </mxGeometry>
        </mxCell>
        <mxCell id="LJ5irhbfw4PvmowIeIFu-9" value="" style="endArrow=classic;html=1;rounded=0;entryX=0.008;entryY=0.4;entryDx=0;entryDy=0;entryPerimeter=0;" parent="1" edge="1">
          <mxGeometry width="50" height="50" relative="1" as="geometry">
            <mxPoint y="520" as="sourcePoint" />
            <mxPoint x="161" y="520" as="targetPoint" />
          </mxGeometry>
        </mxCell>
        <mxCell id="LJ5irhbfw4PvmowIeIFu-10" value="" style="endArrow=classic;html=1;rounded=0;entryX=0.008;entryY=0.4;entryDx=0;entryDy=0;entryPerimeter=0;" parent="1" edge="1">
          <mxGeometry width="50" height="50" relative="1" as="geometry">
            <mxPoint y="560" as="sourcePoint" />
            <mxPoint x="161" y="560" as="targetPoint" />
          </mxGeometry>
        </mxCell>
        <mxCell id="LJ5irhbfw4PvmowIeIFu-13" value="" style="shape=flexArrow;endArrow=classic;html=1;rounded=0;width=2;strokeWidth=2;startSize=2;endSize=5;" parent="1" edge="1">
          <mxGeometry width="50" height="50" relative="1" as="geometry">
            <mxPoint x="280" y="500" as="sourcePoint" />
            <mxPoint x="400" y="400" as="targetPoint" />
            <Array as="points">
              <mxPoint x="341" y="500" />
              <mxPoint x="341" y="400" />
            </Array>
          </mxGeometry>
        </mxCell>
        <mxCell id="LJ5irhbfw4PvmowIeIFu-14" value="" style="shape=flexArrow;endArrow=classic;html=1;rounded=0;width=2;strokeWidth=2;startSize=2;endSize=5;" parent="1" edge="1">
          <mxGeometry width="50" height="50" relative="1" as="geometry">
            <mxPoint x="280" y="220" as="sourcePoint" />
            <mxPoint x="400" y="320" as="targetPoint" />
            <Array as="points">
              <mxPoint x="340" y="220" />
              <mxPoint x="340" y="320" />
            </Array>
          </mxGeometry>
        </mxCell>
        <mxCell id="LJ5irhbfw4PvmowIeIFu-15" value="" style="shape=flexArrow;endArrow=classic;html=1;rounded=0;width=2;strokeWidth=2;startSize=2;endSize=5;" parent="1" edge="1">
          <mxGeometry width="50" height="50" relative="1" as="geometry">
            <mxPoint x="520" y="360" as="sourcePoint" />
            <mxPoint x="640" y="360" as="targetPoint" />
            <Array as="points" />
          </mxGeometry>
        </mxCell>
        <mxCell id="LJ5irhbfw4PvmowIeIFu-17" value="" style="endArrow=classic;html=1;rounded=0;" parent="1" edge="1">
          <mxGeometry width="50" height="50" relative="1" as="geometry">
            <mxPoint y="160" as="sourcePoint" />
            <mxPoint x="640" y="720" as="targetPoint" />
            <Array as="points">
              <mxPoint x="120" y="160" />
              <mxPoint x="120" y="720" />
            </Array>
          </mxGeometry>
        </mxCell>
        <mxCell id="LJ5irhbfw4PvmowIeIFu-18" value="" style="endArrow=classic;html=1;rounded=0;" parent="1" edge="1">
          <mxGeometry width="50" height="50" relative="1" as="geometry">
            <mxPoint y="280" as="sourcePoint" />
            <mxPoint x="640" y="840" as="targetPoint" />
            <Array as="points">
              <mxPoint x="60" y="280" />
              <mxPoint x="60" y="840" />
            </Array>
          </mxGeometry>
        </mxCell>
        <mxCell id="LJ5irhbfw4PvmowIeIFu-19" value="" style="endArrow=classic;html=1;rounded=0;" parent="1" edge="1">
          <mxGeometry width="50" height="50" relative="1" as="geometry">
            <mxPoint x="120" y="160" as="sourcePoint" />
            <mxPoint x="160" y="160" as="targetPoint" />
          </mxGeometry>
        </mxCell>
        <mxCell id="LJ5irhbfw4PvmowIeIFu-20" value="" style="endArrow=classic;html=1;rounded=0;" parent="1" edge="1">
          <mxGeometry width="50" height="50" relative="1" as="geometry">
            <mxPoint x="60" y="280" as="sourcePoint" />
            <mxPoint x="160" y="280" as="targetPoint" />
          </mxGeometry>
        </mxCell>
        <mxCell id="LJ5irhbfw4PvmowIeIFu-25" value="" style="endArrow=classic;html=1;rounded=0;" parent="1" edge="1">
          <mxGeometry width="50" height="50" relative="1" as="geometry">
            <mxPoint x="-1" y="880" as="sourcePoint" />
            <mxPoint x="639" y="880" as="targetPoint" />
          </mxGeometry>
        </mxCell>
        <mxCell id="LJ5irhbfw4PvmowIeIFu-26" value="" style="endArrow=classic;html=1;rounded=0;" parent="1" edge="1">
          <mxGeometry width="50" height="50" relative="1" as="geometry">
            <mxPoint x="-1" y="999.09" as="sourcePoint" />
            <mxPoint x="639" y="999.09" as="targetPoint" />
          </mxGeometry>
        </mxCell>
        <mxCell id="LJ5irhbfw4PvmowIeIFu-27" value="" style="endArrow=classic;html=1;rounded=0;" parent="1" edge="1">
          <mxGeometry width="50" height="50" relative="1" as="geometry">
            <mxPoint y="960" as="sourcePoint" />
            <mxPoint x="640" y="960" as="targetPoint" />
          </mxGeometry>
        </mxCell>
        <mxCell id="LJ5irhbfw4PvmowIeIFu-28" value="" style="endArrow=classic;html=1;rounded=0;" parent="1" edge="1">
          <mxGeometry width="50" height="50" relative="1" as="geometry">
            <mxPoint x="-1" y="920" as="sourcePoint" />
            <mxPoint x="639" y="920" as="targetPoint" />
          </mxGeometry>
        </mxCell>
        <mxCell id="LJ5irhbfw4PvmowIeIFu-29" value="" style="endArrow=classic;html=1;rounded=0;" parent="1" edge="1">
          <mxGeometry width="50" height="50" relative="1" as="geometry">
            <mxPoint y="1120" as="sourcePoint" />
            <mxPoint x="700" y="1080" as="targetPoint" />
            <Array as="points">
              <mxPoint x="700" y="1120" />
            </Array>
          </mxGeometry>
        </mxCell>
        <mxCell id="LJ5irhbfw4PvmowIeIFu-30" value="" style="endArrow=classic;html=1;rounded=0;" parent="1" edge="1">
          <mxGeometry width="50" height="50" relative="1" as="geometry">
            <mxPoint y="1039.5" as="sourcePoint" />
            <mxPoint x="640" y="1039.5" as="targetPoint" />
          </mxGeometry>
        </mxCell>
        <mxCell id="LJ5irhbfw4PvmowIeIFu-31" value="" style="endArrow=classic;html=1;rounded=0;" parent="1" edge="1">
          <mxGeometry width="50" height="50" relative="1" as="geometry">
            <mxPoint x="40" y="880" as="sourcePoint" />
            <mxPoint x="220" y="400" as="targetPoint" />
            <Array as="points">
              <mxPoint x="40" y="360" />
              <mxPoint x="220" y="360" />
            </Array>
          </mxGeometry>
        </mxCell>
        <mxCell id="LJ5irhbfw4PvmowIeIFu-32" value="" style="endArrow=classic;html=1;rounded=0;" parent="1" edge="1">
          <mxGeometry width="50" height="50" relative="1" as="geometry">
            <mxPoint x="40" y="360" as="sourcePoint" />
            <mxPoint x="220" y="120" as="targetPoint" />
            <Array as="points">
              <mxPoint x="40" y="80" />
              <mxPoint x="220" y="80" />
            </Array>
          </mxGeometry>
        </mxCell>
        <mxCell id="LJ5irhbfw4PvmowIeIFu-33" value="x0" style="text;html=1;strokeColor=none;fillColor=none;align=center;verticalAlign=middle;whiteSpace=wrap;rounded=0;connectable=0;" parent="1" vertex="1">
          <mxGeometry x="-40" y="150" width="40" height="20" as="geometry" />
        </mxCell>
        <mxCell id="LJ5irhbfw4PvmowIeIFu-35" value="x1" style="text;html=1;strokeColor=none;fillColor=none;align=center;verticalAlign=middle;whiteSpace=wrap;rounded=0;connectable=0;" parent="1" vertex="1">
          <mxGeometry x="-40" y="190" width="40" height="20" as="geometry" />
        </mxCell>
        <mxCell id="LJ5irhbfw4PvmowIeIFu-36" value="x2" style="text;html=1;strokeColor=none;fillColor=none;align=center;verticalAlign=middle;whiteSpace=wrap;rounded=0;connectable=0;" parent="1" vertex="1">
          <mxGeometry x="-40" y="230" width="40" height="20" as="geometry" />
        </mxCell>
        <mxCell id="LJ5irhbfw4PvmowIeIFu-37" value="x3" style="text;html=1;strokeColor=none;fillColor=none;align=center;verticalAlign=middle;whiteSpace=wrap;rounded=0;connectable=0;" parent="1" vertex="1">
          <mxGeometry x="-40" y="270" width="40" height="20" as="geometry" />
        </mxCell>
        <mxCell id="LJ5irhbfw4PvmowIeIFu-38" value="z0" style="text;html=1;strokeColor=none;fillColor=none;align=center;verticalAlign=middle;whiteSpace=wrap;rounded=0;connectable=0;" parent="1" vertex="1">
          <mxGeometry x="-40" y="430" width="40" height="20" as="geometry" />
        </mxCell>
        <mxCell id="LJ5irhbfw4PvmowIeIFu-39" value="z1" style="text;html=1;strokeColor=none;fillColor=none;align=center;verticalAlign=middle;whiteSpace=wrap;rounded=0;connectable=0;" parent="1" vertex="1">
          <mxGeometry x="-40" y="470" width="40" height="20" as="geometry" />
        </mxCell>
        <mxCell id="LJ5irhbfw4PvmowIeIFu-40" value="z2" style="text;html=1;strokeColor=none;fillColor=none;align=center;verticalAlign=middle;whiteSpace=wrap;rounded=0;connectable=0;" parent="1" vertex="1">
          <mxGeometry x="-40" y="510" width="40" height="20" as="geometry" />
        </mxCell>
        <mxCell id="LJ5irhbfw4PvmowIeIFu-41" value="z3" style="text;html=1;strokeColor=none;fillColor=none;align=center;verticalAlign=middle;whiteSpace=wrap;rounded=0;connectable=0;" parent="1" vertex="1">
          <mxGeometry x="-40" y="550" width="40" height="20" as="geometry" />
        </mxCell>
        <mxCell id="LJ5irhbfw4PvmowIeIFu-42" value="y0" style="text;html=1;strokeColor=none;fillColor=none;align=center;verticalAlign=middle;whiteSpace=wrap;rounded=0;connectable=0;" parent="1" vertex="1">
          <mxGeometry x="-41" y="870" width="40" height="20" as="geometry" />
        </mxCell>
        <mxCell id="LJ5irhbfw4PvmowIeIFu-43" value="y1" style="text;html=1;strokeColor=none;fillColor=none;align=center;verticalAlign=middle;whiteSpace=wrap;rounded=0;connectable=0;" parent="1" vertex="1">
          <mxGeometry x="-41" y="910" width="40" height="20" as="geometry" />
        </mxCell>
        <mxCell id="LJ5irhbfw4PvmowIeIFu-44" value="y2" style="text;html=1;strokeColor=none;fillColor=none;align=center;verticalAlign=middle;whiteSpace=wrap;rounded=0;connectable=0;" parent="1" vertex="1">
          <mxGeometry x="-41" y="950" width="40" height="20" as="geometry" />
        </mxCell>
        <mxCell id="LJ5irhbfw4PvmowIeIFu-45" value="en" style="text;html=1;strokeColor=none;fillColor=none;align=center;verticalAlign=middle;whiteSpace=wrap;rounded=0;connectable=0;" parent="1" vertex="1">
          <mxGeometry x="-41" y="990" width="40" height="20" as="geometry" />
        </mxCell>
        <mxCell id="LJ5irhbfw4PvmowIeIFu-46" value="clk" style="text;html=1;strokeColor=none;fillColor=none;align=center;verticalAlign=middle;whiteSpace=wrap;rounded=0;connectable=0;" parent="1" vertex="1">
          <mxGeometry x="-40" y="1030" width="40" height="20" as="geometry" />
        </mxCell>
        <mxCell id="LJ5irhbfw4PvmowIeIFu-47" value="clr" style="text;html=1;strokeColor=none;fillColor=none;align=center;verticalAlign=middle;whiteSpace=wrap;rounded=0;connectable=0;" parent="1" vertex="1">
          <mxGeometry x="-40" y="1110" width="40" height="20" as="geometry" />
        </mxCell>
        <mxCell id="LJ5irhbfw4PvmowIeIFu-49" value="CoZ1" style="text;html=1;strokeColor=none;fillColor=none;align=center;verticalAlign=middle;whiteSpace=wrap;rounded=0;fontSize=16;connectable=0;" parent="1" vertex="1">
          <mxGeometry x="201" y="160" width="40" height="40" as="geometry" />
        </mxCell>
        <mxCell id="LJ5irhbfw4PvmowIeIFu-50" value="CoZ2" style="text;html=1;strokeColor=none;fillColor=none;align=center;verticalAlign=middle;whiteSpace=wrap;rounded=0;fontSize=16;connectable=0;" parent="1" vertex="1">
          <mxGeometry x="201" y="440" width="40" height="40" as="geometry" />
        </mxCell>
        <mxCell id="LJ5irhbfw4PvmowIeIFu-51" value="SM" style="text;html=1;strokeColor=none;fillColor=none;align=center;verticalAlign=middle;whiteSpace=wrap;rounded=0;fontSize=16;connectable=0;" parent="1" vertex="1">
          <mxGeometry x="441" y="200" width="40" height="40" as="geometry" />
        </mxCell>
        <mxCell id="LJ5irhbfw4PvmowIeIFu-52" value="RG" style="text;html=1;strokeColor=none;fillColor=none;align=center;verticalAlign=middle;whiteSpace=wrap;rounded=0;fontSize=16;connectable=0;" parent="1" vertex="1">
          <mxGeometry x="681" y="320" width="40" height="40" as="geometry" />
        </mxCell>
        <mxCell id="LJ5irhbfw4PvmowIeIFu-54" value="D0" style="text;html=1;strokeColor=none;fillColor=none;align=center;verticalAlign=middle;whiteSpace=wrap;rounded=0;connectable=0;" parent="1" vertex="1">
          <mxGeometry x="161" y="150" width="40" height="20" as="geometry" />
        </mxCell>
        <mxCell id="LJ5irhbfw4PvmowIeIFu-55" value="D1" style="text;html=1;strokeColor=none;fillColor=none;align=center;verticalAlign=middle;whiteSpace=wrap;rounded=0;connectable=0;" parent="1" vertex="1">
          <mxGeometry x="161" y="270" width="40" height="20" as="geometry" />
        </mxCell>
        <mxCell id="LJ5irhbfw4PvmowIeIFu-56" value="D0" style="text;html=1;strokeColor=none;fillColor=none;align=center;verticalAlign=middle;whiteSpace=wrap;rounded=0;connectable=0;" parent="1" vertex="1">
          <mxGeometry x="161" y="430" width="40" height="20" as="geometry" />
        </mxCell>
        <mxCell id="LJ5irhbfw4PvmowIeIFu-57" value="D1" style="text;html=1;strokeColor=none;fillColor=none;align=center;verticalAlign=middle;whiteSpace=wrap;rounded=0;connectable=0;" parent="1" vertex="1">
          <mxGeometry x="161" y="470" width="40" height="20" as="geometry" />
        </mxCell>
        <mxCell id="LJ5irhbfw4PvmowIeIFu-58" value="D2" style="text;html=1;strokeColor=none;fillColor=none;align=center;verticalAlign=middle;whiteSpace=wrap;rounded=0;connectable=0;" parent="1" vertex="1">
          <mxGeometry x="161" y="510" width="40" height="20" as="geometry" />
        </mxCell>
        <mxCell id="LJ5irhbfw4PvmowIeIFu-59" value="D3" style="text;html=1;strokeColor=none;fillColor=none;align=center;verticalAlign=middle;whiteSpace=wrap;rounded=0;connectable=0;" parent="1" vertex="1">
          <mxGeometry x="161" y="550" width="40" height="20" as="geometry" />
        </mxCell>
        <mxCell id="LJ5irhbfw4PvmowIeIFu-60" value="Y" style="text;html=1;strokeColor=none;fillColor=none;align=center;verticalAlign=middle;whiteSpace=wrap;rounded=0;connectable=0;" parent="1" vertex="1">
          <mxGeometry x="201" y="120" width="40" height="20" as="geometry" />
        </mxCell>
        <mxCell id="LJ5irhbfw4PvmowIeIFu-61" value="Y" style="text;html=1;strokeColor=none;fillColor=none;align=center;verticalAlign=middle;whiteSpace=wrap;rounded=0;connectable=0;" parent="1" vertex="1">
          <mxGeometry x="201" y="400" width="40" height="20" as="geometry" />
        </mxCell>
        <mxCell id="LJ5irhbfw4PvmowIeIFu-62" value="A" style="text;html=1;strokeColor=none;fillColor=none;align=center;verticalAlign=middle;whiteSpace=wrap;rounded=0;connectable=0;" parent="1" vertex="1">
          <mxGeometry x="401" y="310" width="40" height="20" as="geometry" />
        </mxCell>
        <mxCell id="LJ5irhbfw4PvmowIeIFu-63" value="B" style="text;html=1;strokeColor=none;fillColor=none;align=center;verticalAlign=middle;whiteSpace=wrap;rounded=0;connectable=0;" parent="1" vertex="1">
          <mxGeometry x="401" y="390" width="40" height="20" as="geometry" />
        </mxCell>
        <mxCell id="LJ5irhbfw4PvmowIeIFu-64" value="SM" style="text;html=1;strokeColor=none;fillColor=none;align=center;verticalAlign=middle;whiteSpace=wrap;rounded=0;connectable=0;" parent="1" vertex="1">
          <mxGeometry x="641" y="350" width="40" height="20" as="geometry" />
        </mxCell>
        <mxCell id="LJ5irhbfw4PvmowIeIFu-65" value="D0" style="text;html=1;strokeColor=none;fillColor=none;align=center;verticalAlign=middle;whiteSpace=wrap;rounded=0;connectable=0;" parent="1" vertex="1">
          <mxGeometry x="640" y="710" width="40" height="20" as="geometry" />
        </mxCell>
        <mxCell id="LJ5irhbfw4PvmowIeIFu-66" value="D1" style="text;html=1;strokeColor=none;fillColor=none;align=center;verticalAlign=middle;whiteSpace=wrap;rounded=0;connectable=0;" parent="1" vertex="1">
          <mxGeometry x="640" y="750" width="40" height="20" as="geometry" />
        </mxCell>
        <mxCell id="LJ5irhbfw4PvmowIeIFu-67" value="D2" style="text;html=1;strokeColor=none;fillColor=none;align=center;verticalAlign=middle;whiteSpace=wrap;rounded=0;connectable=0;" parent="1" vertex="1">
          <mxGeometry x="640" y="790" width="40" height="20" as="geometry" />
        </mxCell>
        <mxCell id="LJ5irhbfw4PvmowIeIFu-68" value="D3" style="text;html=1;strokeColor=none;fillColor=none;align=center;verticalAlign=middle;whiteSpace=wrap;rounded=0;connectable=0;" parent="1" vertex="1">
          <mxGeometry x="640" y="830" width="40" height="20" as="geometry" />
        </mxCell>
        <mxCell id="LJ5irhbfw4PvmowIeIFu-69" value="Y0" style="text;html=1;strokeColor=none;fillColor=none;align=center;verticalAlign=middle;whiteSpace=wrap;rounded=0;connectable=0;" parent="1" vertex="1">
          <mxGeometry x="640" y="870" width="40" height="20" as="geometry" />
        </mxCell>
        <mxCell id="LJ5irhbfw4PvmowIeIFu-70" value="Y1" style="text;html=1;strokeColor=none;fillColor=none;align=center;verticalAlign=middle;whiteSpace=wrap;rounded=0;connectable=0;" parent="1" vertex="1">
          <mxGeometry x="640" y="910" width="40" height="20" as="geometry" />
        </mxCell>
        <mxCell id="LJ5irhbfw4PvmowIeIFu-71" value="Y2" style="text;html=1;strokeColor=none;fillColor=none;align=center;verticalAlign=middle;whiteSpace=wrap;rounded=0;connectable=0;" parent="1" vertex="1">
          <mxGeometry x="640" y="950" width="40" height="20" as="geometry" />
        </mxCell>
        <mxCell id="LJ5irhbfw4PvmowIeIFu-72" value="EN" style="text;html=1;strokeColor=none;fillColor=none;align=center;verticalAlign=middle;whiteSpace=wrap;rounded=0;connectable=0;" parent="1" vertex="1">
          <mxGeometry x="640" y="990" width="40" height="20" as="geometry" />
        </mxCell>
        <mxCell id="LJ5irhbfw4PvmowIeIFu-73" value="CLK" style="text;html=1;strokeColor=none;fillColor=none;align=center;verticalAlign=middle;whiteSpace=wrap;rounded=0;connectable=0;" parent="1" vertex="1">
          <mxGeometry x="640" y="1030" width="40" height="20" as="geometry" />
        </mxCell>
        <mxCell id="LJ5irhbfw4PvmowIeIFu-74" value="CLR" style="text;html=1;strokeColor=none;fillColor=none;align=center;verticalAlign=middle;whiteSpace=wrap;rounded=0;connectable=0;" parent="1" vertex="1">
          <mxGeometry x="681" y="1060" width="40" height="20" as="geometry" />
        </mxCell>
        <mxCell id="LJ5irhbfw4PvmowIeIFu-75" value="F" style="text;html=1;strokeColor=none;fillColor=none;align=center;verticalAlign=middle;whiteSpace=wrap;rounded=0;connectable=0;" parent="1" vertex="1">
          <mxGeometry x="241" y="210" width="40" height="20" as="geometry" />
        </mxCell>
        <mxCell id="LJ5irhbfw4PvmowIeIFu-76" value="F" style="text;html=1;strokeColor=none;fillColor=none;align=center;verticalAlign=middle;whiteSpace=wrap;rounded=0;connectable=0;" parent="1" vertex="1">
          <mxGeometry x="241" y="490" width="40" height="20" as="geometry" />
        </mxCell>
        <mxCell id="LJ5irhbfw4PvmowIeIFu-77" value="S" style="text;html=1;strokeColor=none;fillColor=none;align=center;verticalAlign=middle;whiteSpace=wrap;rounded=0;connectable=0;" parent="1" vertex="1">
          <mxGeometry x="481" y="350" width="40" height="20" as="geometry" />
        </mxCell>
        <mxCell id="LJ5irhbfw4PvmowIeIFu-78" value="" style="endArrow=classic;html=1;rounded=0;" parent="1" edge="1">
          <mxGeometry width="50" height="50" relative="1" as="geometry">
            <mxPoint x="760" y="760" as="sourcePoint" />
            <mxPoint x="840" y="760" as="targetPoint" />
          </mxGeometry>
        </mxCell>
        <mxCell id="LJ5irhbfw4PvmowIeIFu-79" value="" style="endArrow=classic;html=1;rounded=0;" parent="1" edge="1">
          <mxGeometry width="50" height="50" relative="1" as="geometry">
            <mxPoint x="761" y="799.55" as="sourcePoint" />
            <mxPoint x="841" y="799.55" as="targetPoint" />
          </mxGeometry>
        </mxCell>
        <mxCell id="LJ5irhbfw4PvmowIeIFu-80" value="" style="endArrow=classic;html=1;rounded=0;" parent="1" edge="1">
          <mxGeometry width="50" height="50" relative="1" as="geometry">
            <mxPoint x="761" y="839.55" as="sourcePoint" />
            <mxPoint x="841" y="839.55" as="targetPoint" />
          </mxGeometry>
        </mxCell>
        <mxCell id="LJ5irhbfw4PvmowIeIFu-81" value="" style="endArrow=classic;html=1;rounded=0;" parent="1" edge="1">
          <mxGeometry width="50" height="50" relative="1" as="geometry">
            <mxPoint x="761" y="720" as="sourcePoint" />
            <mxPoint x="841" y="720" as="targetPoint" />
          </mxGeometry>
        </mxCell>
        <mxCell id="LJ5irhbfw4PvmowIeIFu-82" value="Q0" style="text;html=1;strokeColor=none;fillColor=none;align=center;verticalAlign=middle;whiteSpace=wrap;rounded=0;connectable=0;" parent="1" vertex="1">
          <mxGeometry x="721" y="710" width="40" height="20" as="geometry" />
        </mxCell>
        <mxCell id="LJ5irhbfw4PvmowIeIFu-83" value="Q1" style="text;html=1;strokeColor=none;fillColor=none;align=center;verticalAlign=middle;whiteSpace=wrap;rounded=0;connectable=0;" parent="1" vertex="1">
          <mxGeometry x="721" y="750" width="40" height="20" as="geometry" />
        </mxCell>
        <mxCell id="LJ5irhbfw4PvmowIeIFu-84" value="Q2" style="text;html=1;strokeColor=none;fillColor=none;align=center;verticalAlign=middle;whiteSpace=wrap;rounded=0;connectable=0;" parent="1" vertex="1">
          <mxGeometry x="721" y="790" width="40" height="20" as="geometry" />
        </mxCell>
        <mxCell id="LJ5irhbfw4PvmowIeIFu-85" value="Q3" style="text;html=1;strokeColor=none;fillColor=none;align=center;verticalAlign=middle;whiteSpace=wrap;rounded=0;connectable=0;" parent="1" vertex="1">
          <mxGeometry x="721" y="830" width="40" height="20" as="geometry" />
        </mxCell>
        <mxCell id="LJ5irhbfw4PvmowIeIFu-86" value="q0" style="text;html=1;strokeColor=none;fillColor=none;align=center;verticalAlign=middle;whiteSpace=wrap;rounded=0;connectable=0;" parent="1" vertex="1">
          <mxGeometry x="840" y="710" width="40" height="20" as="geometry" />
        </mxCell>
        <mxCell id="LJ5irhbfw4PvmowIeIFu-87" value="q1" style="text;html=1;strokeColor=none;fillColor=none;align=center;verticalAlign=middle;whiteSpace=wrap;rounded=0;connectable=0;" parent="1" vertex="1">
          <mxGeometry x="840" y="750" width="40" height="20" as="geometry" />
        </mxCell>
        <mxCell id="LJ5irhbfw4PvmowIeIFu-88" value="q2" style="text;html=1;strokeColor=none;fillColor=none;align=center;verticalAlign=middle;whiteSpace=wrap;rounded=0;connectable=0;" parent="1" vertex="1">
          <mxGeometry x="840" y="790" width="40" height="20" as="geometry" />
        </mxCell>
        <mxCell id="LJ5irhbfw4PvmowIeIFu-89" value="q3" style="text;html=1;strokeColor=none;fillColor=none;align=center;verticalAlign=middle;whiteSpace=wrap;rounded=0;connectable=0;" parent="1" vertex="1">
          <mxGeometry x="840" y="830" width="40" height="20" as="geometry" />
        </mxCell>
        <mxCell id="LJ5irhbfw4PvmowIeIFu-90" value="" style="ellipse;whiteSpace=wrap;html=1;aspect=fixed;fillStyle=auto;gradientColor=none;fillColor=#FFFFFF;connectable=0;" parent="1" vertex="1">
          <mxGeometry x="117" y="157" width="6" height="6" as="geometry" />
        </mxCell>
        <mxCell id="LJ5irhbfw4PvmowIeIFu-92" value="" style="ellipse;whiteSpace=wrap;html=1;aspect=fixed;fillStyle=auto;gradientColor=none;fillColor=#FFFFFF;connectable=0;" parent="1" vertex="1">
          <mxGeometry x="57" y="277" width="6" height="6" as="geometry" />
        </mxCell>
        <mxCell id="LJ5irhbfw4PvmowIeIFu-93" value="" style="ellipse;whiteSpace=wrap;html=1;aspect=fixed;fillStyle=auto;gradientColor=none;fillColor=#FFFFFF;connectable=0;" parent="1" vertex="1">
          <mxGeometry x="37" y="357" width="6" height="6" as="geometry" />
        </mxCell>
        <mxCell id="LJ5irhbfw4PvmowIeIFu-94" value="" style="ellipse;whiteSpace=wrap;html=1;aspect=fixed;fillStyle=auto;gradientColor=none;fillColor=#FFFFFF;connectable=0;" parent="1" vertex="1">
          <mxGeometry x="37" y="877" width="6" height="6" as="geometry" />
        </mxCell>
        <mxCell id="bq9eP5b3zskDlp9fMzNJ-1" value="" style="endArrow=classic;html=1;rounded=0;" edge="1" parent="1">
          <mxGeometry width="50" height="50" relative="1" as="geometry">
            <mxPoint y="680" as="sourcePoint" />
            <mxPoint x="640" y="680" as="targetPoint" />
          </mxGeometry>
        </mxCell>
        <mxCell id="bq9eP5b3zskDlp9fMzNJ-2" value="SRI1" style="text;html=1;strokeColor=none;fillColor=none;align=center;verticalAlign=middle;whiteSpace=wrap;rounded=0;connectable=0;" vertex="1" parent="1">
          <mxGeometry x="641" y="670" width="40" height="20" as="geometry" />
        </mxCell>
        <mxCell id="bq9eP5b3zskDlp9fMzNJ-3" value="SRI0" style="text;html=1;strokeColor=none;fillColor=none;align=center;verticalAlign=middle;whiteSpace=wrap;rounded=0;connectable=0;" vertex="1" parent="1">
          <mxGeometry x="640" y="630" width="40" height="20" as="geometry" />
        </mxCell>
        <mxCell id="bq9eP5b3zskDlp9fMzNJ-4" value="" style="endArrow=classic;html=1;rounded=0;" edge="1" parent="1">
          <mxGeometry width="50" height="50" relative="1" as="geometry">
            <mxPoint x="1" y="639.5" as="sourcePoint" />
            <mxPoint x="641" y="639.5" as="targetPoint" />
          </mxGeometry>
        </mxCell>
        <mxCell id="bq9eP5b3zskDlp9fMzNJ-5" value="sri0" style="text;html=1;strokeColor=none;fillColor=none;align=center;verticalAlign=middle;whiteSpace=wrap;rounded=0;connectable=0;" vertex="1" parent="1">
          <mxGeometry x="-40" y="630" width="40" height="20" as="geometry" />
        </mxCell>
        <mxCell id="bq9eP5b3zskDlp9fMzNJ-6" value="sri1" style="text;html=1;strokeColor=none;fillColor=none;align=center;verticalAlign=middle;whiteSpace=wrap;rounded=0;connectable=0;" vertex="1" parent="1">
          <mxGeometry x="-40" y="670" width="40" height="20" as="geometry" />
        </mxCell>
        <mxCell id="bq9eP5b3zskDlp9fMzNJ-7" value="s1 : int[0-4]" style="text;html=1;strokeColor=none;fillColor=none;align=center;verticalAlign=middle;whiteSpace=wrap;rounded=0;connectable=0;" vertex="1" parent="1">
          <mxGeometry x="300" y="190" width="79" height="20" as="geometry" />
        </mxCell>
        <mxCell id="bq9eP5b3zskDlp9fMzNJ-8" value="s2 : int[0-8]" style="text;html=1;strokeColor=none;fillColor=none;align=center;verticalAlign=middle;whiteSpace=wrap;rounded=0;connectable=0;" vertex="1" parent="1">
          <mxGeometry x="300" y="510" width="79" height="20" as="geometry" />
        </mxCell>
        <mxCell id="bq9eP5b3zskDlp9fMzNJ-9" value="s3 : int[0-12]" style="text;html=1;strokeColor=none;fillColor=none;align=center;verticalAlign=middle;whiteSpace=wrap;rounded=0;connectable=0;" vertex="1" parent="1">
          <mxGeometry x="540" y="330" width="79" height="20" as="geometry" />
        </mxCell>
      </root>
    </mxGraphModel>
  </diagram>
</mxfile>
